<svg xmlns="http://www.w3.org/2000/svg" xmlns:xlink="http://www.w3.org/1999/xlink" version="1.1" x="0px" y="0px" viewBox="0 0 100 125" enable-background="new 0 0 100 100" xml:space="preserve"><g><g><path d="M54.307,75.057c-0.044,0-0.084-0.001-0.129-0.002c-1.217-0.061-2.233-0.943-2.465-2.139L45.156,38.76l-3.525,11.983    c-0.33,1.122-1.359,1.893-2.531,1.893H18v-5.273h19.127l6.036-20.528c0.344-1.165,1.412-1.914,2.658-1.891    c1.216,0.061,2.234,0.943,2.463,2.138l6.562,34.157l3.523-11.984c0.33-1.122,1.361-1.892,2.529-1.892H82v5.273H62.873    l-6.038,20.528C56.504,74.291,55.473,75.057,54.307,75.057z"/></g></g><text x="0" y="115" fill="#000000" font-size="5px" font-weight="bold" font-family="'Helvetica Neue', Helvetica, Arial-Unicode, Arial, Sans-serif">Created by Volodin Anton</text><text x="0" y="120" fill="#000000" font-size="5px" font-weight="bold" font-family="'Helvetica Neue', Helvetica, Arial-Unicode, Arial, Sans-serif">from the Noun Project</text></svg>